# xmcd
#
# Track frame offsets:
#	150
#	15142
#	32456
#	57185
#	75843
#	99336
#	111230
#	133469
#
# Disc length: 2431 seconds
#
# Revision: 0
# Processed by: cddbd v1.5PL3 Copyright (c) Steve Scherf et al.
# Submitted via: dBpowerAMP V4.0
#
DISCID=52097d08
DTITLE=Curtila - The Joint Swing Blues
DYEAR=2003
DGENRE=Blues
TTITLE0=The Joint Swing Blues
TTITLE1=Looking For Better Times
TTITLE2=Sitting On Top Of The World
TTITLE3=May I
TTITLE4=Funky Down Town
TTITLE5=Running
TTITLE6=Jack
TTITLE7=Own Blues
EXTD=
EXTT0=
EXTT1=
EXTT2=
EXTT3=
EXTT4=
EXTT5=
EXTT6=
EXTT7=
PLAYORDER=
